<?xml version="1.0" encoding="iso-8859-1"?>
<!-- Generator: Adobe Illustrator 19.0.0, SVG Export Plug-In . SVG Version: 6.00 Build 0)  -->
<svg
	version="1.1"
	id="Layer_1"
	xmlns="http://www.w3.org/2000/svg"
	xmlns:xlink="http://www.w3.org/1999/xlink"
	x="0px" y="0px"
	width="21px" height="21px"
	viewBox="0 0 512 512"
	style="enable-background:new 0 0 512 512;"
	xml:space="preserve"
	fill="white"
>
<g>
	<g>
		<g>
			<path d="M255.996,384.004c-11.776,0-21.333,9.557-21.333,21.333s9.557,21.333,21.333,21.333c11.776,0,21.333-9.557,21.333-21.333
				S267.772,384.004,255.996,384.004z"/>
			<path d="M437.016,74.984c-99.979-99.979-262.075-99.979-362.033,0.002c-99.978,99.978-99.978,262.073,0.004,362.031
				c99.954,99.978,262.05,99.978,362.029-0.002C536.995,337.059,536.995,174.964,437.016,74.984z M406.848,406.844
				c-83.318,83.318-218.396,83.318-301.691,0.004c-83.318-83.299-83.318-218.377-0.002-301.693
				c83.297-83.317,218.375-83.317,301.691,0S490.162,323.549,406.848,406.844z"/>
			<path d="M271.295,86.684c-53.025-9.308-100.632,31.063-100.632,83.987c0,11.782,9.551,21.333,21.333,21.333
				s21.333-9.551,21.333-21.333c0-26.507,23.776-46.67,50.584-41.964c16.882,2.968,31.079,17.165,34.048,34.052
				c3.299,18.783-5.487,36.533-21.417,45.315c-26.377,14.544-41.882,43.645-41.882,74.746v37.184
				c0,11.782,9.551,21.333,21.333,21.333c11.782,0,21.333-9.551,21.333-21.333V282.82c0-16.217,7.725-30.716,19.816-37.382
				c31.705-17.479,49.333-53.091,42.839-90.063C333.906,120.803,305.864,92.761,271.295,86.684z"/>
		</g>
	</g>
</g>
<g>
</g>
<g>
</g>
<g>
</g>
<g>
</g>
<g>
</g>
<g>
</g>
<g>
</g>
<g>
</g>
<g>
</g>
<g>
</g>
<g>
</g>
<g>
</g>
<g>
</g>
<g>
</g>
<g>
</g>
</svg>